<svg width="24" height="24" viewBox="0 0 24 24" fill="none" xmlns="http://www.w3.org/2000/svg">
<path d="M19.3365 15.1055C19.6922 14.881 19.9854 14.5703 20.1888 14.2022C20.3922 13.8341 20.4993 13.4205 20.5 13C20.5 11.6215 19.3785 10.5 18 10.5C16.6215 10.5 15.5 11.6215 15.5 13C15.5 13.8865 15.9675 14.6625 16.6655 15.1065C15.9474 15.2861 15.3042 15.6876 14.8275 16.254C14.4151 15.9575 13.9497 15.7426 13.4565 15.621C13.9239 15.3613 14.3134 14.9814 14.5848 14.5207C14.8562 14.06 14.9995 13.5352 15 13.0005C15 11.346 13.6545 10.0005 12 10.0005C10.3455 10.0005 9.00002 11.346 9.00002 13.0005C9.00052 13.5352 9.14386 14.06 9.41523 14.5207C9.68659 14.9814 10.0761 15.3613 10.5435 15.621C10.0503 15.7425 9.5849 15.9574 9.17252 16.254C8.69577 15.6877 8.05261 15.2862 7.33452 15.1065C7.69071 14.8822 7.98436 14.5714 8.18814 14.2031C8.39193 13.8348 8.49921 13.4209 8.50002 13C8.50002 11.6215 7.37852 10.5 6.00002 10.5C4.62152 10.5 3.50002 11.6215 3.50002 13C3.50002 13.886 3.96652 14.661 4.66352 15.1055C3.13702 15.482 2.00002 16.859 2.00002 18.5V19.5C2.00002 20.327 2.67302 21 3.50002 21H7.50002C7.50002 21.827 8.17302 22.5 9.00002 22.5H15C15.827 22.5 16.5 21.827 16.5 21H20.5C21.327 21 22 20.327 22 19.5V18.5C22 16.859 20.863 15.4815 19.3365 15.1055ZM18 11.5C18.827 11.5 19.5 12.173 19.5 13C19.5 13.827 18.827 14.5 18 14.5C17.173 14.5 16.5 13.827 16.5 13C16.5 12.173 17.173 11.5 18 11.5ZM12 11C13.103 11 14 11.897 14 13C14 14.103 13.103 15 12 15C10.897 15 10 14.103 10 13C10 11.897 10.897 11 12 11ZM6.00002 11.5C6.82702 11.5 7.50002 12.173 7.50002 13C7.50002 13.827 6.82702 14.5 6.00002 14.5C5.17302 14.5 4.50002 13.827 4.50002 13C4.50002 12.173 5.17302 11.5 6.00002 11.5ZM3.50002 20C3.22402 20 3.00002 19.7755 3.00002 19.5V18.5C3.00002 17.1215 4.12152 16 5.50002 16H6.50002C7.25502 16 7.96852 16.35 8.43902 16.9305C7.8322 17.6491 7.49953 18.5594 7.50002 19.5V20H3.50002ZM15.5 21C15.5 21.2755 15.276 21.5 15 21.5H9.00002C8.72402 21.5 8.50002 21.2755 8.50002 21V19.5C8.50002 17.8455 9.84552 16.5 11.5 16.5H12.5C14.1545 16.5 15.5 17.8455 15.5 19.5V21ZM21 19.5C21 19.7755 20.776 20 20.5 20H16.5V19.5C16.5005 18.5594 16.1678 17.6491 15.561 16.9305C15.7949 16.6412 16.0903 16.4076 16.4256 16.2467C16.761 16.0857 17.128 16.0015 17.5 16H18.5C19.8785 16 21 17.1215 21 18.5V19.5ZM16.8025 7.31798L16.7755 8.30348C16.7715 8.46096 16.8058 8.61708 16.8755 8.75836C16.9452 8.89964 17.0482 9.02185 17.1756 9.11446C17.3031 9.20707 17.4511 9.26729 17.607 9.28994C17.7629 9.31259 17.922 9.29699 18.0705 9.24448L18.9995 8.91398L19.9285 9.24448C20.0772 9.29695 20.2364 9.31258 20.3925 9.29003C20.5485 9.26747 20.6968 9.20741 20.8245 9.11498C21.0835 8.92698 21.232 8.62348 21.2235 8.30398L21.1965 7.31798L21.798 6.53598C21.8943 6.41117 21.9586 6.26476 21.9855 6.10946C22.0123 5.95416 22.0009 5.79465 21.9522 5.64476C21.9035 5.49487 21.819 5.35912 21.7059 5.24929C21.5929 5.13946 21.4548 5.05886 21.3035 5.01448L20.357 4.73548L19.7995 3.92198C19.7106 3.79171 19.5912 3.68511 19.4517 3.61142C19.3122 3.53774 19.1569 3.4992 18.9992 3.49916C18.8414 3.49911 18.686 3.53755 18.5465 3.61114C18.407 3.68474 18.2875 3.79126 18.1985 3.92148L17.641 4.73498L16.695 5.01398C16.5438 5.05847 16.4057 5.13914 16.2927 5.24901C16.1797 5.35888 16.0951 5.49463 16.0464 5.64452C15.9977 5.79441 15.9862 5.95392 16.0129 6.10925C16.0397 6.26458 16.1039 6.41105 16.2 6.53598L16.8015 7.31748L16.8025 7.31798ZM18.0955 5.64398C18.2058 5.61143 18.3015 5.54186 18.3665 5.44698L18.975 4.48698L19.633 5.44698C19.6985 5.54148 19.7935 5.61148 19.904 5.64398L21.0055 5.92648L20.2955 6.84898C20.2255 6.93998 20.189 7.05248 20.192 7.16748L20.264 8.30248L19.1675 7.91248C19.0592 7.87396 18.9409 7.87396 18.8325 7.91248L17.776 8.33148L17.8075 7.16748C17.8106 7.05258 17.774 6.94013 17.704 6.84898L16.979 5.97348L18.0955 5.64398ZM2.80252 7.31798L2.77552 8.30348C2.77146 8.46096 2.80575 8.61708 2.87545 8.75836C2.94515 8.89964 3.04817 9.02185 3.17561 9.11446C3.30306 9.20707 3.45111 9.26729 3.60702 9.28994C3.76292 9.31259 3.92199 9.29699 4.07052 9.24448L4.99952 8.91398L5.92852 9.24448C6.07721 9.29695 6.23641 9.31258 6.39246 9.29003C6.54852 9.26747 6.69677 9.20741 6.82452 9.11498C7.08352 8.92698 7.23202 8.62348 7.22352 8.30398L7.19652 7.31798L7.79802 6.53598C7.89426 6.41117 7.95861 6.26476 7.98548 6.10946C8.01234 5.95416 8.00093 5.79465 7.95221 5.64476C7.90349 5.49487 7.81895 5.35912 7.70591 5.24929C7.59287 5.13946 7.45475 5.05886 7.30352 5.01448L6.35702 4.73548L5.79952 3.92198C5.71057 3.79171 5.59118 3.68511 5.45171 3.61142C5.31224 3.53774 5.15689 3.4992 4.99915 3.49916C4.84141 3.49911 4.68604 3.53755 4.54652 3.61114C4.407 3.68474 4.28755 3.79126 4.19852 3.92148L3.64102 4.73498L2.69502 5.01398C2.54381 5.05847 2.40572 5.13914 2.29271 5.24901C2.17969 5.35888 2.09515 5.49463 2.0464 5.64452C1.99765 5.79441 1.98616 5.95392 2.01293 6.10925C2.0397 6.26458 2.10391 6.41105 2.20002 6.53598L2.80152 7.31748L2.80252 7.31798ZM4.09552 5.64398C4.20582 5.61143 4.30153 5.54186 4.36652 5.44698L4.97502 4.48698L5.63302 5.44698C5.69852 5.54148 5.79352 5.61148 5.90402 5.64398L7.00552 5.92648L6.29552 6.84898C6.22552 6.93998 6.18902 7.05248 6.19202 7.16748L6.26402 8.30248L5.16752 7.91248C5.05917 7.87396 4.94086 7.87396 4.83252 7.91248L3.77602 8.33148L3.80752 7.16748C3.81057 7.05258 3.77403 6.94013 3.70402 6.84898L2.97902 5.97348L4.09552 5.64398ZM9.46452 5.94898L9.43102 7.16798C9.42735 7.31007 9.45215 7.45146 9.50396 7.58383C9.55576 7.71619 9.63353 7.83685 9.73268 7.9387C9.83183 8.04056 9.95036 8.12154 10.0813 8.17689C10.2122 8.23223 10.3529 8.26083 10.495 8.26098C10.6145 8.26098 10.735 8.24048 10.8515 8.19948L12.0005 7.79098L13.1495 8.19948C13.3124 8.2571 13.4869 8.27432 13.6579 8.24968C13.829 8.22503 13.9915 8.15925 14.1315 8.05798C14.2714 7.95624 14.3843 7.82202 14.4607 7.66688C14.5371 7.51174 14.5746 7.34034 14.57 7.16748L14.5365 5.94898L15.28 4.98248C15.3853 4.84536 15.4556 4.68467 15.4849 4.51428C15.5142 4.3439 15.5016 4.16895 15.4481 4.00454C15.3947 3.84013 15.302 3.6912 15.1781 3.57063C15.0542 3.45005 14.9028 3.36145 14.737 3.31248L13.5675 2.96748L12.8785 1.96198C12.7807 1.81946 12.6496 1.7029 12.4966 1.62237C12.3437 1.54184 12.1734 1.49976 12.0005 1.49976C11.8276 1.49976 11.6574 1.54184 11.5044 1.62237C11.3514 1.7029 11.2204 1.81946 11.1225 1.96198L10.4335 2.96748L9.26352 3.31248C9.09776 3.36151 8.94643 3.45016 8.82259 3.57076C8.69875 3.69136 8.60613 3.84029 8.55273 4.00469C8.49932 4.16909 8.48673 4.34403 8.51605 4.51438C8.54537 4.68473 8.61572 4.84539 8.72102 4.98248L9.46452 5.94898ZM9.50352 4.31398C9.51402 4.28148 9.53802 4.27448 9.54602 4.27198L10.8865 3.87698C10.997 3.84453 11.0929 3.77495 11.158 3.67998L11.9475 2.52748C11.952 2.52048 11.9665 2.49948 12 2.49948C12.0335 2.49948 12.0485 2.52048 12.0525 2.52748L12.842 3.67998C12.907 3.77448 13.003 3.84448 13.1135 3.87698L14.4535 4.27198C14.462 4.27448 14.486 4.28148 14.4965 4.31398C14.5001 4.32386 14.5011 4.33453 14.4992 4.3449C14.4974 4.35526 14.4928 4.36495 14.486 4.37298L13.634 5.47998C13.564 5.57098 13.5275 5.68398 13.5305 5.79898L13.569 7.19498C13.569 7.20348 13.57 7.22848 13.5425 7.24848C13.515 7.26798 13.491 7.25948 13.4835 7.25698L12.167 6.78898C12.0587 6.75046 11.9404 6.75046 11.832 6.78898L10.5155 7.25698C10.5058 7.26082 10.4952 7.26206 10.4849 7.26057C10.4745 7.25908 10.4648 7.25491 10.4565 7.24848C10.4478 7.24269 10.4407 7.23469 10.4361 7.22529C10.4314 7.2159 10.4293 7.20544 10.43 7.19498L10.4685 5.79848C10.4716 5.68343 10.435 5.57082 10.365 5.47948L9.51302 4.37248C9.50625 4.36443 9.50172 4.35474 9.49988 4.34438C9.49803 4.33403 9.49894 4.32337 9.50252 4.31348L9.50352 4.31398Z" fill="#667097"/>
</svg>
