<svg width="24" height="24" viewBox="0 0 24 24" fill="none" xmlns="http://www.w3.org/2000/svg">
<path d="M8.415 15.57C7.81829 16.0366 7.33572 16.633 7.00391 17.314C6.6721 17.9949 6.49977 18.7425 6.5 19.5V21H3.5C2.67 21 2 20.33 2 19.5V18.5C2 16.565 3.565 15 5.5 15H6.5C7.21 15 7.865 15.21 8.415 15.57Z" fill="white"/>
<path d="M18 15C19.2426 15 20.25 13.9926 20.25 12.75C20.25 11.5074 19.2426 10.5 18 10.5C16.7574 10.5 15.75 11.5074 15.75 12.75C15.75 13.9926 16.7574 15 18 15Z" fill="white"/>
<path d="M6 15C7.24264 15 8.25 13.9926 8.25 12.75C8.25 11.5074 7.24264 10.5 6 10.5C4.75736 10.5 3.75 11.5074 3.75 12.75C3.75 13.9926 4.75736 15 6 15Z" fill="white"/>
<path d="M22 18.5V19.5C22 20.33 21.33 21 20.5 21H17.5V19.5C17.5 17.905 16.75 16.485 15.585 15.57C16.135 15.21 16.79 15 17.5 15H18.5C20.435 15 22 16.565 22 18.5Z" fill="white"/>
<path d="M12 15.5C13.5188 15.5 14.75 14.2688 14.75 12.75C14.75 11.2312 13.5188 10 12 10C10.4812 10 9.25 11.2312 9.25 12.75C9.25 14.2688 10.4812 15.5 12 15.5Z" fill="white"/>
<path d="M12.5 15.5H11.5C9.29449 15.5 7.49999 17.2945 7.49999 19.5V21C7.49999 21.827 8.17299 22.5 8.99999 22.5H15C15.827 22.5 16.5 21.827 16.5 21V19.5C16.5 17.2945 14.7055 15.5 12.5 15.5ZM19.25 8.342L18.0435 8.771C17.9643 8.79914 17.8795 8.80757 17.7964 8.79557C17.7133 8.78356 17.6343 8.75147 17.5663 8.70208C17.4984 8.6527 17.4435 8.58749 17.4064 8.51212C17.3693 8.43675 17.3512 8.35347 17.3535 8.2695L17.3885 6.9895L16.6075 5.9745C16.5563 5.90789 16.5221 5.82983 16.5079 5.74706C16.4936 5.66429 16.4997 5.57929 16.5257 5.4994C16.5516 5.41951 16.5966 5.34714 16.6568 5.28853C16.7169 5.22992 16.7905 5.18684 16.871 5.163L18.0995 4.801L18.8235 3.7445C18.871 3.6752 18.9346 3.61851 19.0089 3.57935C19.0833 3.54018 19.166 3.51971 19.25 3.51971C19.334 3.51971 19.4167 3.54018 19.4911 3.57935C19.5654 3.61851 19.629 3.6752 19.6765 3.7445L20.4005 4.801L21.629 5.163C21.9775 5.2655 22.114 5.6865 21.8925 5.9745L21.1115 6.9895L21.1465 8.2695C21.1487 8.35343 21.1305 8.43664 21.0934 8.51195C21.0562 8.58726 21.0013 8.65241 20.9334 8.70177C20.8655 8.75114 20.7866 8.78323 20.7035 8.79529C20.6204 8.80735 20.5356 8.79902 20.4565 8.771L19.25 8.342ZM4.74999 8.342L3.54349 8.771C3.46435 8.79914 3.37953 8.80757 3.29639 8.79557C3.21325 8.78356 3.13429 8.75147 3.06634 8.70208C2.99838 8.6527 2.94349 8.58749 2.9064 8.51212C2.86932 8.43675 2.85116 8.35347 2.85349 8.2695L2.88849 6.9895L2.10749 5.9745C2.05632 5.90789 2.02213 5.82983 2.00788 5.74706C1.99362 5.66429 1.99972 5.57929 2.02566 5.4994C2.0516 5.41951 2.0966 5.34714 2.15676 5.28853C2.21693 5.22992 2.29046 5.18684 2.37099 5.163L3.59949 4.801L4.32349 3.7445C4.37097 3.6752 4.43462 3.61851 4.50894 3.57935C4.58325 3.54018 4.66599 3.51971 4.74999 3.51971C4.834 3.51971 4.91674 3.54018 4.99105 3.57935C5.06536 3.61851 5.12901 3.6752 5.17649 3.7445L5.90049 4.801L7.12899 5.163C7.47749 5.2655 7.61399 5.6865 7.39249 5.9745L6.61149 6.9895L6.64649 8.2695C6.64871 8.35343 6.63047 8.43664 6.59335 8.51195C6.55623 8.58726 6.50134 8.65241 6.43343 8.70177C6.36551 8.75114 6.2866 8.78323 6.20351 8.79529C6.12042 8.80735 6.03564 8.79902 5.95649 8.771L4.74999 8.342ZM12 7.217L10.5695 7.7255C10.4757 7.75884 10.3751 7.76882 10.2766 7.75457C10.178 7.74033 10.0844 7.70229 10.0039 7.64375C9.92333 7.58521 9.85825 7.50793 9.81427 7.41859C9.7703 7.32925 9.74875 7.23054 9.75149 7.131L9.79299 5.6135L8.86699 4.41C8.80634 4.33103 8.76582 4.23849 8.74893 4.14035C8.73204 4.04222 8.73929 3.94145 8.77005 3.84675C8.80082 3.75205 8.85417 3.66626 8.9255 3.59679C8.99684 3.52731 9.08401 3.47625 9.17949 3.448L10.636 3.0185L11.4945 1.766C11.5508 1.68381 11.6263 1.61658 11.7144 1.57012C11.8025 1.52367 11.9006 1.49939 12.0002 1.49939C12.0999 1.49939 12.198 1.52367 12.2861 1.57012C12.3742 1.61658 12.4497 1.68381 12.506 1.766L13.3645 3.0185L14.821 3.448C14.9165 3.47625 15.0036 3.52731 15.075 3.59679C15.1463 3.66626 15.1997 3.75205 15.2304 3.84675C15.2612 3.94145 15.2684 4.04222 15.2516 4.14035C15.2347 4.23849 15.1941 4.33103 15.1335 4.41L14.2075 5.6135L14.249 7.131C14.2517 7.23054 14.2302 7.32925 14.1862 7.41859C14.1422 7.50793 14.0772 7.58521 13.9966 7.64375C13.9161 7.70229 13.8225 7.74033 13.7239 7.75457C13.6254 7.76882 13.5248 7.75884 13.431 7.7255L12 7.217Z" fill="white"/>
</svg>
