<svg width="25" height="24" viewBox="0 0 25 24" fill="none" xmlns="http://www.w3.org/2000/svg">
<path d="M21.5 6.73001C21.48 6.73001 21.45 6.73001 21.42 6.73001C16.13 6.20001 10.85 6.00001 5.61998 6.53001L3.57998 6.73001C3.15998 6.77001 2.78998 6.47001 2.74998 6.05001C2.70998 5.63001 3.00998 5.27001 3.41998 5.23001L5.45998 5.03001C10.78 4.49001 16.17 4.70001 21.57 5.23001C21.98 5.27001 22.28 5.64001 22.24 6.05001C22.21 6.44001 21.88 6.73001 21.5 6.73001Z"/>
<path d="M9.00001 5.72C8.96001 5.72 8.92001 5.72 8.87001 5.71C8.47001 5.64 8.19001 5.25 8.26001 4.85L8.48001 3.54C8.64001 2.58 8.86001 1.25 11.19 1.25H13.81C16.15 1.25 16.37 2.63 16.52 3.55L16.74 4.85C16.81 5.26 16.53 5.65 16.13 5.71C15.72 5.78 15.33 5.5 15.27 5.1L15.05 3.8C14.91 2.93 14.88 2.76 13.82 2.76H11.2C10.14 2.76 10.12 2.9 9.97001 3.79L9.74001 5.09C9.68001 5.46 9.36001 5.72 9.00001 5.72Z"/>
<path d="M15.71 22.75H9.29002C5.80002 22.75 5.66002 20.82 5.55002 19.26L4.90002 9.19001C4.87002 8.78001 5.19002 8.42001 5.60002 8.39001C6.02002 8.37001 6.37002 8.68001 6.40002 9.09001L7.05002 19.16C7.16002 20.68 7.20002 21.25 9.29002 21.25H15.71C17.81 21.25 17.85 20.68 17.95 19.16L18.6 9.09001C18.63 8.68001 18.99 8.37001 19.4 8.39001C19.81 8.42001 20.13 8.77001 20.1 9.19001L19.45 19.26C19.34 20.82 19.2 22.75 15.71 22.75Z"/>
<path d="M14.16 17.25H10.83C10.42 17.25 10.08 16.91 10.08 16.5C10.08 16.09 10.42 15.75 10.83 15.75H14.16C14.57 15.75 14.91 16.09 14.91 16.5C14.91 16.91 14.57 17.25 14.16 17.25Z"/>
<path d="M15 13.25H10C9.59 13.25 9.25 12.91 9.25 12.5C9.25 12.09 9.59 11.75 10 11.75H15C15.41 11.75 15.75 12.09 15.75 12.5C15.75 12.91 15.41 13.25 15 13.25Z"/>
</svg>