<svg width="24" height="25" viewBox="0 0 24 25" fill="none" xmlns="http://www.w3.org/2000/svg">
<path opacity="0.4" d="M21.2501 9.65004C20.7601 8.87004 20.2001 8.17004 19.6201 7.54004L15.8501 11.31C15.9701 11.68 16.0401 12.08 16.0401 12.5C16.0401 14.74 14.2301 16.54 12.0001 16.54C11.5801 16.54 11.1801 16.47 10.8101 16.35L7.3501 19.81C8.8101 20.63 10.3901 21.06 12.0001 21.06C13.7801 21.06 15.5101 20.54 17.0901 19.57C18.6701 18.59 20.0901 17.16 21.2501 15.34C22.2501 13.78 22.2501 11.22 21.2501 9.65004Z" fill="#667097"/>
<path d="M14.0199 10.4799L9.97989 14.5199C9.46989 13.9999 9.13989 13.2799 9.13989 12.4999C9.13989 10.9299 10.4199 9.63989 11.9999 9.63989C12.7799 9.63989 13.4999 9.96989 14.0199 10.4799Z" fill="#667097"/>
<path opacity="0.4" d="M18.25 6.24993L14.86 9.63993C14.13 8.89993 13.12 8.45993 12 8.45993C9.76 8.45993 7.96 10.2699 7.96 12.4999C7.96 13.6199 8.41 14.6299 9.14 15.3599L5.76 18.7499H5.75C4.64 17.8499 3.62 16.6999 2.75 15.3399C1.75 13.7699 1.75 11.2199 2.75 9.64993C3.91 7.82993 5.33 6.39993 6.91 5.41993C8.49 4.45993 10.22 3.92993 12 3.92993C14.23 3.92993 16.39 4.74993 18.25 6.24993Z" fill="#667097"/>
<path d="M14.8601 12.5001C14.8601 14.0701 13.5801 15.3601 12.0001 15.3601C11.9401 15.3601 11.8901 15.3601 11.8301 15.3401L14.8401 12.3301C14.8601 12.3901 14.8601 12.4401 14.8601 12.5001Z" fill="#667097"/>
<path d="M21.7699 2.72988C21.4699 2.42988 20.9799 2.42988 20.6799 2.72988L2.22988 21.1899C1.92988 21.4899 1.92988 21.9799 2.22988 22.2799C2.37988 22.4199 2.56988 22.4999 2.76988 22.4999C2.96988 22.4999 3.15988 22.4199 3.30988 22.2699L21.7699 3.80988C22.0799 3.50988 22.0799 3.02988 21.7699 2.72988Z" fill="#667097"/>
</svg>
