<svg width="24" height="24" viewBox="0 0 24 24" fill="none" xmlns="http://www.w3.org/2000/svg">
<g clip-path="url(#clip0_386_10866)">
<path d="M6.09894 6.38239L16.6621 1.8537L12.2883 0.0569001C12.1036 -0.0189667 11.8964 -0.0189667 11.7117 0.0569001L1.20651 4.37254L6.09894 6.38239ZM18.6281 2.66132L8.06166 7.18868L12 8.80662L22.7935 4.37254L18.6281 2.66132ZM11.2413 10.1354L6.96673 8.37934V11.7042C6.96673 12.1232 6.62703 12.4629 6.20805 12.4629C5.78907 12.4629 5.44936 12.1232 5.44936 11.7042V7.75599L0.525452 5.73319V19.0893C0.52545 19.2397 0.570167 19.3867 0.653923 19.5117C0.737678 19.6367 0.85669 19.7339 0.995836 19.7911L11.2413 24V10.1354ZM12.7587 10.1354V24L23.0041 19.7911C23.1433 19.7339 23.2623 19.6367 23.3461 19.5117C23.4298 19.3867 23.4745 19.2397 23.4745 19.0893V5.73319L12.7587 10.1354Z" fill="white"/>
</g>
<defs>
<clipPath id="clip0_386_10866">
<rect width="24" height="24" fill="white"/>
</clipPath>
</defs>
</svg>
