<svg width="24" height="24" viewBox="0 0 24 24" fill="none" xmlns="http://www.w3.org/2000/svg">
<g clip-path="url(#clip0_386_10260)">
<path d="M23.3562 5.10763C23.3562 4.95875 23.3119 4.81324 23.229 4.68957C23.1461 4.5659 23.0283 4.46967 22.8906 4.41308L12.2853 0.0563132C12.1025 -0.0187711 11.8975 -0.0187711 11.7147 0.0563132L1.10933 4.41308C0.971621 4.46966 0.853836 4.56589 0.770945 4.68956C0.688053 4.81323 0.643797 4.95875 0.643799 5.10763V18.8924C0.643797 19.0413 0.688053 19.1868 0.770945 19.3104C0.853836 19.4341 0.971621 19.5303 1.10933 19.5869L11.7147 23.9437C11.8971 24.0188 12.1019 24.0188 12.2844 23.9436C12.2934 23.9406 11.8919 24.1053 22.8906 19.5869C23.0283 19.5303 23.1461 19.4341 23.229 19.3104C23.3119 19.1868 23.3562 19.0413 23.3562 18.8924V5.10763ZM12 8.71579L8.09232 7.1105L16.5372 3.42655L20.7062 5.13921L12 8.71579ZM2.14552 6.29098L5.51692 7.67599V11.5835C5.51692 11.9981 5.85312 12.3343 6.26778 12.3343C6.68245 12.3343 7.01864 11.9981 7.01864 11.5835V8.29291L11.2491 10.0308V22.1289L2.14552 18.3891V6.29098ZM12 1.56258L14.6029 2.6319L6.15806 6.31585L3.29377 5.13916L12 1.56258ZM12.7508 10.0308L21.8545 6.29098V18.3891L12.7508 22.1289V10.0308Z" fill="#667097"/>
</g>
<defs>
<clipPath id="clip0_386_10260">
<rect width="24" height="24" fill="white"/>
</clipPath>
</defs>
</svg>
