<svg width="32" height="32" viewBox="0 0 32 32" fill="none" xmlns="http://www.w3.org/2000/svg">
<g clip-path="url(#clip0_354_12091)">
<path d="M15.804 23C15.6547 23 15.5193 22.958 15.398 22.874C15.2767 22.79 15.188 22.678 15.132 22.538C15.076 22.398 15.062 22.2557 15.09 22.111C15.118 21.9663 15.1833 21.8427 15.286 21.74L21.012 16L15.286 10.26C15.1647 10.1107 15.1087 9.94267 15.118 9.756C15.1273 9.56933 15.1997 9.40833 15.335 9.273C15.4703 9.13767 15.6313 9.063 15.818 9.049C16.0047 9.035 16.1727 9.08867 16.322 9.21L22.594 15.482C22.734 15.622 22.804 15.7947 22.804 16C22.804 16.2053 22.734 16.378 22.594 16.518L16.322 22.79C16.182 22.93 16.0093 23 15.804 23ZM22.062 16.742H8.74801C8.54268 16.742 8.36768 16.6697 8.22301 16.525C8.07835 16.3803 8.00601 16.2053 8.00601 16C8.00601 15.7947 8.07835 15.6197 8.22301 15.475C8.36768 15.3303 8.54268 15.258 8.74801 15.258H22.062C22.2673 15.258 22.4423 15.3303 22.587 15.475C22.7317 15.6197 22.804 15.7947 22.804 16C22.804 16.2053 22.7317 16.3803 22.587 16.525C22.4423 16.6697 22.2673 16.742 22.062 16.742Z" fill="white"/>
</g>
<defs>
<clipPath id="clip0_354_12091">
<rect width="14.81" height="14" fill="white" transform="matrix(1 0 0 -1 8 23)"/>
</clipPath>
</defs>
</svg>
