<svg width="40" height="40" viewBox="0 0 40 40" fill="none" xmlns="http://www.w3.org/2000/svg">
<path fill-rule="evenodd" clip-rule="evenodd" d="M19.3162 8.71791C13.4618 8.71791 8.71795 13.458 8.71795 19.3028C8.71795 25.1475 13.4618 29.8877 19.3162 29.8877C22.237 29.8877 24.8799 28.7091 26.7978 26.7999C28.7244 24.8822 29.9145 22.2322 29.9145 19.3028C29.9145 13.458 25.1706 8.71791 19.3162 8.71791ZM6.66666 19.3028C6.66666 12.3229 12.3312 6.66663 19.3162 6.66663C26.3013 6.66663 31.9658 12.3229 31.9658 19.3028C31.9658 22.4299 30.8276 25.2929 28.9444 27.4986L33.0325 31.582C33.4333 31.9823 33.4337 32.6317 33.0333 33.0325C32.633 33.4332 31.9836 33.4336 31.5829 33.0333L27.491 28.9461C25.2867 30.8123 22.4323 31.9389 19.3162 31.9389C12.3312 31.9389 6.66666 26.2827 6.66666 19.3028Z" fill="#667097"/>
</svg>
